<svg width="71" height="71" viewBox="0 0 71 71" fill="none" xmlns="http://www.w3.org/2000/svg">
<path d="M39.5701 10.4242L39.5108 10.2418L39.8118 10.6304C40.0701 10.9195 40.2833 10.8555 40.4658 10.6304C40.4658 10.6304 42.0607 8.79859 40.8118 6.66582C40.1246 5.25345 37.4136 1.89316 35.987 0.840988C33.4087 -0.796505 31.7452 0.461829 31.7452 0.461829C31.539 0.615862 31.3873 0.840988 31.539 1.04953L31.9418 1.46423C27.0768 2.4382 26.3611 6.22742 26.0435 7.9052L25.9914 8.18246L25.3374 12.7324C25.1288 14.3201 25.9914 15.1803 27.5081 15.1803H32.4561C34.1813 15.204 37.7738 15.249 39.5701 10.4242V10.4242Z" fill="#DADADA"/>
<path d="M23.6453 7.84641L23.1169 11.5243L6.3675 27.0176C5.73181 27.5485 5.25667 28.246 4.99542 29.0319C4.89454 29.3252 4.82232 29.6276 4.77977 29.9348V31.1434C5.42197 31.1955 6.1637 31.1434 6.97179 30.9633L59.9688 15.759C60.1451 15.7084 60.3307 15.6994 60.511 15.7327C60.6914 15.766 60.8616 15.8407 61.0081 15.951C61.1547 16.0613 61.2737 16.2041 61.3557 16.3681C61.4377 16.5322 61.4805 16.7131 61.4807 16.8965V28.3802C61.4818 28.6346 61.4008 28.8825 61.2496 29.087C61.0985 29.2916 60.8852 29.4418 60.6418 29.5154C50.4993 32.5723 10.1781 44.722 9.1875 44.9898C8.06661 45.2979 5.58549 45.7623 4.77977 45.6581V53.0872C5.50255 53.1867 6.25375 53.1583 6.97179 52.9664L59.9664 37.6223C60.1428 37.5712 60.3287 37.5618 60.5094 37.595C60.6901 37.6281 60.8606 37.7027 61.0074 37.8131C61.1543 37.9234 61.2735 38.0663 61.3556 38.2306C61.4377 38.3949 61.4806 38.5761 61.4807 38.7597V49.7838L63.2674 49.2719L63.284 49.2672L63.3836 49.234C63.9638 49.043 64.5222 48.7912 65.0495 48.4828C66.123 47.843 66.2202 47.4093 66.2202 47.3548V16.4912C66.2202 15.9746 66.0069 15.0599 65.4452 14.176C64.9192 13.3466 64.1727 12.6759 63.194 12.3513L43.627 7.76347C43.5405 6.98282 43.2937 6.22847 42.9019 5.54776C42.4208 4.59749 41.4729 3.2965 40.5582 2.17798L64.367 7.75873C64.4229 7.77248 64.4782 7.78829 64.5329 7.80612C66.8197 8.51705 68.4288 10.0337 69.4454 11.6356C70.4407 13.1997 70.9596 14.9841 70.9596 16.4912V47.3548C70.9596 50.1511 68.725 51.8099 67.469 52.5564C66.5895 53.0744 65.6537 53.4902 64.6798 53.7958L64.6182 53.8147L64.5969 53.8195L64.5898 53.8218H64.5874C64.5874 53.8218 64.2438 53.9214 64.585 53.8218L6.74429 70.4243C6.71053 70.4337 6.67656 70.4424 6.64239 70.4503C4.95276 70.8532 3.03327 70.7466 1.61853 69.301C0.35072 68.0071 0.0402832 66.1611 0.0402832 64.5141V29.8329L0.0426531 29.7049V29.6694L0.0497623 29.6173C0.0638972 29.4058 0.0900062 29.1954 0.127964 28.9869C0.194317 28.603 0.310434 28.084 0.514232 27.4892C1.03543 25.9499 1.95531 24.5762 3.1802 23.5081L25.4463 2.91497C25.3955 2.98769 25.3457 3.06116 25.297 3.13536C24.2164 4.8084 23.887 6.5549 23.7259 7.41038L23.7164 7.46725C23.694 7.59388 23.6703 7.72027 23.6453 7.84641Z" fill="#DADADA"/>
</svg>
