<svg width="14" height="13" viewBox="0 0 14 13" fill="none" xmlns="http://www.w3.org/2000/svg">
<path d="M13.4219 2.93126C13.2124 2.44632 12.9104 2.00687 12.5328 1.63751C12.1549 1.26705 11.7093 0.972653 11.2203 0.770324C10.7132 0.559688 10.1694 0.451872 9.62031 0.453136C8.85 0.453136 8.09844 0.664073 7.44531 1.06251C7.28906 1.15782 7.14062 1.26251 7 1.37657C6.85938 1.26251 6.71094 1.15782 6.55469 1.06251C5.90156 0.664073 5.15 0.453136 4.37969 0.453136C3.825 0.453136 3.2875 0.559386 2.77969 0.770324C2.28906 0.973449 1.84687 1.26564 1.46719 1.63751C1.08906 2.00645 0.786997 2.44601 0.578125 2.93126C0.360938 3.43595 0.25 3.97189 0.25 4.52345C0.25 5.04376 0.35625 5.58595 0.567188 6.13751C0.74375 6.59845 0.996875 7.07657 1.32031 7.55939C1.83281 8.32345 2.5375 9.12033 3.4125 9.92814C4.8625 11.2672 6.29844 12.1922 6.35938 12.2297L6.72969 12.4672C6.89375 12.5719 7.10469 12.5719 7.26875 12.4672L7.63906 12.2297C7.7 12.1906 9.13437 11.2672 10.5859 9.92814C11.4609 9.12033 12.1656 8.32345 12.6781 7.55939C13.0016 7.07657 13.2562 6.59845 13.4312 6.13751C13.6422 5.58595 13.7484 5.04376 13.7484 4.52345C13.75 3.97189 13.6391 3.43595 13.4219 2.93126Z" fill="#FFD9A1"/>
</svg>
