<svg width="132" height="128" viewBox="0 0 132 128" fill="none" xmlns="http://www.w3.org/2000/svg">
<path d="M68.4817 35.9807L68.4577 35.9067L68.5798 36.0643C68.6845 36.1815 68.771 36.1556 68.845 36.0643C68.845 36.0643 69.4918 35.3214 68.9853 34.4565C68.7066 33.8837 67.6072 32.5209 67.0287 32.0942C65.983 31.4302 65.3084 31.9405 65.3084 31.9405C65.2248 32.0029 65.1633 32.0942 65.2248 32.1788L65.3882 32.347C63.4151 32.742 63.1249 34.2787 62.9961 34.9591L62.975 35.0715L62.7097 36.9167C62.6252 37.5606 62.975 37.9095 63.5901 37.9095H65.5967C66.2963 37.9191 67.7533 37.9373 68.4817 35.9807Z" fill="white"/>
<path d="M62.0236 34.9353L61.8092 36.4268L55.0166 42.7101C54.7588 42.9254 54.5661 43.2082 54.4602 43.527C54.4193 43.6459 54.39 43.7685 54.3727 43.8931V44.3833C54.6332 44.4044 54.934 44.3833 55.2617 44.3102L76.7544 38.1442C76.8259 38.1237 76.9011 38.12 76.9743 38.1335C77.0474 38.147 77.1164 38.1773 77.1759 38.2221C77.2353 38.2668 77.2836 38.3247 77.3168 38.3912C77.3501 38.4578 77.3674 38.5311 77.3675 38.6055V43.2627C77.368 43.3658 77.3351 43.4664 77.2738 43.5493C77.2125 43.6323 77.126 43.6932 77.0273 43.723C72.9141 44.9628 56.562 49.89 56.1603 49.9986C55.7057 50.1235 54.6995 50.3119 54.3727 50.2696V53.2825C54.6658 53.3228 54.9705 53.3113 55.2617 53.2335L76.7534 47.0107C76.825 46.99 76.9003 46.9862 76.9736 46.9997C77.0469 47.0131 77.116 47.0434 77.1756 47.0881C77.2351 47.1329 77.2835 47.1908 77.3168 47.2575C77.3501 47.3241 77.3675 47.3975 77.3675 47.472V51.9428L78.0921 51.7352L78.0989 51.7333L78.1392 51.7198C78.3745 51.6423 78.601 51.5402 78.8148 51.4152C79.2502 51.1557 79.2896 50.9798 79.2896 50.9577V38.4411C79.2896 38.2316 79.2031 37.8607 78.9753 37.5022C78.762 37.1659 78.4592 36.8939 78.0623 36.7622L70.127 34.9016C70.092 34.5851 69.9919 34.2791 69.833 34.0031C69.6379 33.6177 69.2535 33.0901 68.8825 32.6365L78.5381 34.8997C78.5607 34.9053 78.5831 34.9117 78.6053 34.9189C79.5327 35.2073 80.1853 35.8223 80.5976 36.472C81.0012 37.1063 81.2117 37.8299 81.2117 38.4411V50.9577C81.2117 52.0917 80.3054 52.7645 79.7961 53.0672C79.4394 53.2773 79.0599 53.4459 78.6649 53.5698L78.6399 53.5775L78.6313 53.5794L78.6284 53.5804H78.6274C78.6274 53.5804 78.4881 53.6208 78.6265 53.5804L55.1694 60.3134C55.1557 60.3173 55.142 60.3208 55.1281 60.324C54.4429 60.4874 53.6644 60.4441 53.0907 59.8579C52.5765 59.3332 52.4507 58.5845 52.4507 57.9166V43.8518L52.4516 43.7999V43.7855L52.4545 43.7643C52.4602 43.6786 52.4708 43.5933 52.4862 43.5087C52.5131 43.353 52.5602 43.1426 52.6429 42.9013C52.8542 42.2771 53.2273 41.72 53.724 41.2868L62.754 32.9354C62.7333 32.9649 62.7131 32.9946 62.6934 33.0247C62.2552 33.7032 62.1216 34.4115 62.0562 34.7584L62.0524 34.7815C62.0433 34.8329 62.0337 34.8841 62.0236 34.9353Z" fill="white"/>
<path d="M26.721 71.551C28.6327 71.551 29.6301 73.0388 29.7133 76.0144C29.7133 76.5297 29.5138 76.7874 29.1148 76.7874C28.8488 76.7874 28.6494 76.7791 28.5164 76.7624C28.4 76.7458 28.267 76.6876 28.1174 76.5879C27.9678 76.4881 27.8597 76.3385 27.7933 76.1391C27.7766 76.1224 27.7517 75.8149 27.7184 75.2165C27.7018 74.9006 27.6769 74.6513 27.6436 74.4684C27.627 74.2689 27.5855 74.0445 27.519 73.7952C27.4691 73.5292 27.3777 73.338 27.2447 73.2217C27.1283 73.0887 26.9704 73.0222 26.7709 73.0222C26.4052 73.0222 26.0977 73.2133 25.8483 73.5957C25.6156 73.9614 25.4992 74.4102 25.4992 74.9422C25.4992 75.3411 25.6156 75.8149 25.8483 76.3635C26.0977 76.8954 26.3221 77.3193 26.5216 77.6352C26.7377 77.951 27.0618 78.4248 27.494 79.0565C28.1922 80.0372 28.7408 80.9349 29.1397 81.7494C29.5387 82.564 29.7382 83.4201 29.7382 84.3178C29.7382 87.5759 28.5579 89.205 26.1974 89.205C25.2997 89.205 24.5683 88.8144 24.0031 88.0331C23.4546 87.2518 23.1803 86.3707 23.1803 85.39C23.1803 84.5255 23.5377 84.0933 24.2525 84.0933C25.0172 84.0933 25.3995 84.4591 25.3995 85.1905C25.5159 86.7863 25.8733 87.5843 26.4717 87.5843C27.3361 87.5843 27.7683 86.778 27.7683 85.1655C27.7683 84.6004 27.652 84.0268 27.4192 83.445C27.2031 82.8466 26.987 82.3811 26.7709 82.0487C26.5714 81.7162 26.2473 81.2258 25.7984 80.5775C25.3164 79.8959 24.9423 79.3474 24.6764 78.9318C24.4104 78.5162 24.1444 77.9427 23.8784 77.2113C23.6125 76.4798 23.4795 75.7567 23.4795 75.0419C23.4795 73.9946 23.787 73.1552 24.4021 72.5235C25.0338 71.8752 25.8068 71.551 26.721 71.551ZM41.7567 79.7546V79.7796L43.1281 72.0497C43.2944 71.7505 43.6268 71.6009 44.1255 71.6009C44.591 71.6009 44.8237 71.8668 44.8237 72.3988C44.8237 72.4819 44.7572 72.964 44.6242 73.845C43.6767 79.4139 42.7624 83.8939 41.8814 87.285C41.765 87.684 41.6736 87.9832 41.6071 88.1827C41.5406 88.3655 41.3993 88.5484 41.1832 88.7313C40.9671 88.8975 40.6845 88.9806 40.3354 88.9806C39.5042 88.9806 38.964 88.1744 38.7146 86.5619C38.4154 84.7333 37.9998 81.9157 37.4679 78.1089C36.6533 82.4476 36.005 85.5063 35.5229 87.285C35.3899 87.8668 35.2237 88.2991 35.0242 88.5817C34.8247 88.8476 34.4757 88.9806 33.977 88.9806C33.1458 88.9806 32.6055 88.1744 32.3562 86.5619C31.9572 84.1681 31.4668 80.752 30.885 76.3136C30.8351 75.8648 30.752 75.3328 30.6357 74.7178C30.5359 74.1027 30.4528 73.5874 30.3863 73.1718C30.3198 72.7562 30.2866 72.4819 30.2866 72.3489C30.2866 72.083 30.3697 71.9084 30.5359 71.8253C30.7022 71.7255 30.9931 71.6591 31.4086 71.6258C31.5749 71.6258 31.7494 71.6923 31.9323 71.8253C32.1318 71.9417 32.2564 72.0663 32.3063 72.1993C32.4227 72.7313 32.5473 73.6788 32.6803 75.0419C32.7136 75.4243 33.2123 79.0731 34.1764 85.9884L35.4232 79.7546L36.4705 75.5157C36.4705 75.3661 36.6035 75.1666 36.8694 74.9172C37.152 74.6679 37.418 74.5432 37.6673 74.5432C37.9167 74.5432 38.1328 74.6097 38.3157 74.7427C38.4985 74.8591 38.6066 75.0004 38.6398 75.1666C38.8393 75.9146 39.0305 76.8954 39.2133 78.1089L39.5873 80.6772C39.8367 82.3728 40.1359 84.1598 40.485 86.0383L41.7567 79.7546ZM47.5853 73.5707C47.552 73.5874 47.5354 74.2191 47.5354 75.4658C47.5354 76.0476 47.5271 76.6211 47.5105 77.1863C47.5105 77.7515 47.5105 78.0674 47.5105 78.1339V78.6824L47.5354 79.5053C47.6185 79.5219 47.926 79.5302 48.458 79.5302H49.6549C50.1536 79.5302 50.4611 79.5884 50.5775 79.7048C50.7105 79.8211 50.777 80.0705 50.777 80.4528C50.777 80.7354 50.6855 80.9515 50.5027 81.1011C50.3364 81.2507 50.137 81.3255 49.9042 81.3255H48.3832C48.1006 81.3255 47.9094 81.3505 47.8097 81.4004C47.7099 81.4336 47.6601 81.525 47.6601 81.6746V82.8466C47.6601 84.2928 47.6518 85.3318 47.6351 85.9635L47.6102 87.4596L47.9842 87.5094C48.3998 87.5094 48.6492 87.5011 48.7323 87.4845C48.8486 87.4845 49.0398 87.4762 49.3058 87.4596C49.5884 87.4263 49.7796 87.4097 49.8793 87.4097C50.4944 87.4097 50.8601 87.5178 50.9764 87.7339C51.0429 87.8668 51.0762 88.0414 51.0762 88.2575C51.0762 88.457 51.0014 88.6232 50.8518 88.7562C50.7022 88.8726 50.5359 88.9391 50.3531 88.9557C49.1063 89.072 48.0258 89.1302 47.1115 89.1302C46.5629 89.1302 46.1889 89.0471 45.9894 88.8809C45.7899 88.7146 45.6902 88.3905 45.6902 87.9084V86.5868C45.7401 85.1572 45.765 82.2565 45.765 77.8845C45.765 75.9063 45.7733 74.8507 45.7899 74.7178C45.7899 74.6679 45.7899 74.5931 45.7899 74.4933C45.8066 74.377 45.8149 74.2855 45.8149 74.2191C45.8481 73.1718 45.9894 72.4487 46.2388 72.0497C46.4216 71.817 46.9785 71.7006 47.9094 71.7006C48.0092 71.7006 48.1422 71.7089 48.3084 71.7255C48.4746 71.7255 48.6076 71.7255 48.7073 71.7255H49.4803C50.1453 71.7255 50.5858 71.7754 50.8019 71.8752C51.018 71.9583 51.126 72.1993 51.126 72.5983C51.126 72.964 51.0263 73.2133 50.8268 73.3463C50.6273 73.4793 50.1868 73.5458 49.5053 73.5458H49.2809L47.5853 73.5707ZM54.233 73.5707C54.1997 73.5874 54.1831 74.2191 54.1831 75.4658C54.1831 76.0476 54.1748 76.6211 54.1582 77.1863C54.1582 77.7515 54.1582 78.0674 54.1582 78.1339V78.6824L54.1831 79.5053C54.2662 79.5219 54.5738 79.5302 55.1057 79.5302H56.3026C56.8013 79.5302 57.1088 79.5884 57.2252 79.7048C57.3582 79.8211 57.4247 80.0705 57.4247 80.4528C57.4247 80.7354 57.3333 80.9515 57.1504 81.1011C56.9842 81.2507 56.7847 81.3255 56.552 81.3255H55.0309C54.7483 81.3255 54.5572 81.3505 54.4574 81.4004C54.3577 81.4336 54.3078 81.525 54.3078 81.6746V82.8466C54.3078 84.2928 54.2995 85.3318 54.2829 85.9635L54.2579 87.4596L54.632 87.5094C55.0475 87.5094 55.2969 87.5011 55.38 87.4845C55.4964 87.4845 55.6875 87.4762 55.9535 87.4596C56.2361 87.4263 56.4273 87.4097 56.527 87.4097C57.1421 87.4097 57.5078 87.5178 57.6242 87.7339C57.6907 87.8668 57.7239 88.0414 57.7239 88.2575C57.7239 88.457 57.6491 88.6232 57.4995 88.7562C57.3499 88.8726 57.1836 88.9391 57.0008 88.9557C55.754 89.072 54.6735 89.1302 53.7592 89.1302C53.2107 89.1302 52.8366 89.0471 52.6372 88.8809C52.4377 88.7146 52.3379 88.3905 52.3379 87.9084V86.5868C52.3878 85.1572 52.4127 82.2565 52.4127 77.8845C52.4127 75.9063 52.421 74.8507 52.4377 74.7178C52.4377 74.6679 52.4377 74.5931 52.4377 74.4933C52.4543 74.377 52.4626 74.2855 52.4626 74.2191C52.4959 73.1718 52.6372 72.4487 52.8865 72.0497C53.0694 71.817 53.6262 71.7006 54.5572 71.7006C54.6569 71.7006 54.7899 71.7089 54.9561 71.7255C55.1223 71.7255 55.2553 71.7255 55.3551 71.7255H56.1281C56.793 71.7255 57.2335 71.7754 57.4496 71.8752C57.6657 71.9583 57.7738 72.1993 57.7738 72.5983C57.7738 72.964 57.674 73.2133 57.4746 73.3463C57.2751 73.4793 56.8346 73.5458 56.153 73.5458H55.9286L54.233 73.5707ZM58.1628 72.3988C58.2792 72.0165 58.5036 71.7588 58.836 71.6258C62.7259 71.6258 64.754 71.6674 64.9202 71.7505C65.0199 71.8004 65.128 71.9084 65.2444 72.0746C65.3607 72.2409 65.4189 72.3822 65.4189 72.4985C65.4189 72.7146 65.3524 72.9224 65.2194 73.1219C65.1031 73.3214 64.9867 73.4211 64.8703 73.4211L64.5711 73.4461C64.3716 73.4461 64.1805 73.4461 63.9976 73.4461C63.7649 73.4627 63.3576 73.471 62.7758 73.471C62.7758 76.4133 62.7592 79.7297 62.7259 83.4201C62.7259 83.8191 62.7176 84.4591 62.701 85.3401C62.701 86.2211 62.701 86.7032 62.701 86.7863V88.3572C62.701 88.4071 62.6677 88.4902 62.6012 88.6066C62.5347 88.7063 62.4101 88.8144 62.2272 88.9307C62.0444 89.0305 61.8283 89.0804 61.5789 89.0804C61.1633 89.0804 60.889 89.0055 60.756 88.8559C60.6397 88.6897 60.5815 88.4487 60.5815 88.1328V87.684C60.5815 87.6341 60.5815 87.551 60.5815 87.4346C60.5981 87.3183 60.6064 87.2268 60.6064 87.1604C60.6563 83.6694 60.6812 79.1146 60.6812 73.4959H59.7586C59.1103 73.4959 58.7363 73.4876 58.6366 73.471C58.3207 73.3879 58.1628 73.0305 58.1628 72.3988ZM71.8933 73.3962C72.1592 72.1494 73.2647 71.5261 75.2096 71.5261C76.6891 71.5261 77.7281 71.9915 78.3265 72.9224C78.6257 73.4045 78.7753 74.3022 78.7753 75.6154C78.7753 77.9593 78.634 79.5552 78.3514 80.403C77.8361 81.9323 76.8553 82.697 75.4091 82.697C74.3785 82.697 73.8548 82.7053 73.8382 82.7219C73.8216 82.7385 73.7966 83.6362 73.7634 85.4149V86.2378L73.7883 87.9333C73.7883 87.9998 73.7551 88.1162 73.6886 88.2824C73.6221 88.4487 73.4891 88.6232 73.2896 88.8061C73.1068 88.9889 72.8907 89.0804 72.6413 89.0804C72.3255 89.0804 72.101 89.0471 71.9681 88.9806C71.8351 88.8975 71.7686 88.7396 71.7686 88.5068L71.8933 73.3962ZM74.8356 73.1468C74.2704 73.1468 73.9629 73.23 73.913 73.3962C73.8631 75.6237 73.8382 77.4274 73.8382 78.8071C73.8382 79.7546 73.8465 80.4944 73.8631 81.0263H75.0849C75.6668 81.0263 76.099 80.7853 76.3816 80.3032C76.6808 79.8045 76.8304 79.1894 76.8304 78.458C76.8304 78.3915 76.8304 78.1505 76.8304 77.7349C76.847 77.3027 76.8553 76.9619 76.8553 76.7126V75.8149C76.8553 74.9006 76.714 74.2274 76.4314 73.7952C76.1488 73.363 75.6169 73.1468 74.8356 73.1468ZM87.083 75.8398C87.083 76.3385 87.0996 77.0035 87.1329 77.8346C87.1495 78.1837 87.1578 78.7655 87.1578 79.5801C87.1578 81.0596 87.0996 82.3479 86.9833 83.445C86.8835 84.5422 86.7007 85.5313 86.4347 86.4123C86.1853 87.2933 85.8279 87.9666 85.3625 88.432C84.9136 88.8809 84.3568 89.1053 83.6918 89.1053C82.8108 89.1053 82.0877 88.8809 81.5225 88.432C80.9573 87.9832 80.5417 87.1105 80.2757 85.8139C79.9765 84.4507 79.8269 82.7552 79.8269 80.7271V77.5105C79.8269 76.8954 79.8851 76.272 80.0014 75.6404C80.1178 75.0087 80.309 74.3604 80.5749 73.6954C80.8409 73.0139 81.2565 72.4653 81.8217 72.0497C82.4035 71.6175 83.0934 71.4014 83.8913 71.4014C84.789 71.4014 85.537 71.8668 86.1355 72.7978C86.7339 73.712 87.0497 74.7261 87.083 75.8398ZM83.5422 87.5094C84.1074 87.5094 84.5147 86.778 84.764 85.3152C85.03 83.8357 85.163 82.0487 85.163 79.9541C85.163 79.7713 85.1713 79.4471 85.1879 78.9817C85.2046 78.5162 85.2129 78.1089 85.2129 77.7598C85.2129 77.3941 85.2046 76.9702 85.1879 76.4881C85.1713 75.9894 85.1297 75.5655 85.0633 75.2165C84.9968 74.8507 84.9053 74.5017 84.789 74.1692C84.6892 73.8201 84.5313 73.5624 84.3152 73.3962C84.1157 73.2133 83.8747 73.1219 83.5921 73.1219C83.243 73.1219 82.9438 73.2881 82.6944 73.6206C82.4451 73.9531 82.229 74.6845 82.0461 75.8149C81.8799 76.9287 81.7968 78.4414 81.7968 80.3531C81.7968 81.0513 81.8134 81.7328 81.8466 82.3978C81.8799 83.0627 81.9464 83.8191 82.0461 84.6668C82.1625 85.5146 82.3453 86.2045 82.5947 86.7365C82.8607 87.2518 83.1765 87.5094 83.5422 87.5094ZM88.1513 72.3988C88.251 72.0663 88.4671 71.8253 88.7996 71.6757C91.5591 71.6757 93.0303 71.7255 93.2131 71.8253C93.529 72.0248 93.6869 72.2492 93.6869 72.4985C93.6869 72.6814 93.6287 72.8809 93.5123 73.097C93.396 73.3131 93.2796 73.4211 93.1633 73.4211C93.1466 73.4211 93.0552 73.4294 92.889 73.4461C92.7227 73.4461 92.5648 73.4461 92.4152 73.4461C92.3653 73.4461 92.2739 73.4544 92.1409 73.471C92.0246 73.471 91.9331 73.471 91.8666 73.471V76.3884C91.8666 78.9484 91.8417 81.1843 91.7918 83.0959C91.7586 84.6585 91.742 85.6892 91.742 86.1879V87.2352H92.889C93.2713 87.3681 93.4957 87.5759 93.5622 87.8585C93.5622 88.5068 93.4126 88.8726 93.1134 88.9557C93.0303 88.9723 92.756 88.9806 92.2905 88.9806C91.4095 88.9806 90.4204 88.964 89.3233 88.9307C89.2235 88.9307 89.0739 88.9307 88.8744 88.9307C88.6916 88.9141 88.5918 88.9058 88.5752 88.9058C88.4588 88.9058 88.3342 88.7811 88.2012 88.5318C88.0848 88.2824 88.0266 88.1079 88.0266 88.0081C88.0266 87.7754 88.2095 87.5344 88.5752 87.285C88.6749 87.2518 89.0905 87.2352 89.822 87.2352V73.4959H89.4479C88.9825 73.4959 88.7082 73.4876 88.6251 73.471C88.3092 73.3879 88.1513 73.0305 88.1513 72.3988ZM94.7104 72.8726C94.7436 72.59 94.8933 72.3572 95.1592 72.1744C95.4252 71.9915 95.766 71.9001 96.1816 71.9001C96.5307 72.0996 96.7966 72.5733 96.9795 73.3214L97.0543 73.6455C97.1873 74.111 97.5364 75.3494 98.1016 77.3609C98.6834 79.3557 99.1738 80.9931 99.5727 82.2731C99.9717 83.5531 100.346 84.6752 100.695 85.6393C100.628 84.2263 100.595 83.1957 100.595 82.5474C100.595 82.0653 100.57 81.3339 100.52 80.3531C100.487 79.3557 100.47 78.6658 100.47 78.2835C100.47 78.0175 100.462 77.6518 100.445 77.1863C100.429 76.7043 100.412 76.2887 100.396 75.9396C100.396 75.5739 100.396 75.2663 100.396 75.017V72.7978C100.396 72.4653 100.512 72.1993 100.745 71.9998C100.977 71.7837 101.418 71.6341 102.066 71.551C102.183 71.7339 102.266 71.9084 102.316 72.0746C102.316 72.2907 102.332 73.5957 102.365 75.9894C102.432 79.6466 102.465 82.6388 102.465 84.9661C102.465 86.4622 102.432 87.3432 102.365 87.6092C102.349 87.8585 102.149 88.0913 101.767 88.3074C101.401 88.5068 101.036 88.6066 100.67 88.6066C100.204 88.6066 99.9135 88.457 99.7971 88.1578L96.5556 78.0341C96.6221 79.3972 96.6553 80.5692 96.6553 81.55L96.7052 88.3822C96.2896 88.7645 95.8325 88.9557 95.3338 88.9557C95.0346 88.9557 94.8517 88.6149 94.7852 87.9333C94.7187 87.2518 94.6855 86.138 94.6855 84.592V80.0788C94.6855 75.7733 94.6938 73.3713 94.7104 72.8726ZM103.211 72.3988C103.328 72.0165 103.552 71.7588 103.885 71.6258C107.775 71.6258 109.803 71.6674 109.969 71.7505C110.069 71.8004 110.177 71.9084 110.293 72.0746C110.409 72.2409 110.468 72.3822 110.468 72.4985C110.468 72.7146 110.401 72.9224 110.268 73.1219C110.152 73.3214 110.035 73.4211 109.919 73.4211L109.62 73.4461C109.42 73.4461 109.229 73.4461 109.046 73.4461C108.814 73.4627 108.406 73.471 107.824 73.471C107.824 76.4133 107.808 79.7297 107.775 83.4201C107.775 83.8191 107.766 84.4591 107.75 85.3401C107.75 86.2211 107.75 86.7032 107.75 86.7863V88.3572C107.75 88.4071 107.716 88.4902 107.65 88.6066C107.583 88.7063 107.459 88.8144 107.276 88.9307C107.093 89.0305 106.877 89.0804 106.628 89.0804C106.212 89.0804 105.938 89.0055 105.805 88.8559C105.688 88.6897 105.63 88.4487 105.63 88.1328V87.684C105.63 87.6341 105.63 87.551 105.63 87.4346C105.647 87.3183 105.655 87.2268 105.655 87.1604C105.705 83.6694 105.73 79.1146 105.73 73.4959H104.807C104.159 73.4959 103.785 73.4876 103.685 73.471C103.369 73.3879 103.211 73.0305 103.211 72.3988Z" fill="white"/>
<path d="M131.162 64C131.162 99.0581 102 127.5 66 127.5C29.9997 127.5 0.837646 99.0581 0.837646 64C0.837646 28.9419 29.9997 0.5 66 0.5C102 0.5 131.162 28.9419 131.162 64Z" stroke="white"/>
</svg>
