<svg width="32" height="32" viewBox="0 0 32 32" fill="none" xmlns="http://www.w3.org/2000/svg">
<path d="M17.8365 6.13111L17.8097 6.0588L17.9455 6.21282C18.0621 6.32739 18.1583 6.30204 18.2406 6.21282C18.2406 6.21282 18.9603 5.48687 18.3968 4.64166C18.0867 4.08194 16.8634 2.75026 16.2197 2.33328C15.0564 1.68435 14.3057 2.18302 14.3057 2.18302C14.2127 2.24407 14.1443 2.33328 14.2127 2.41593L14.3945 2.58027C12.1993 2.96625 11.8764 4.46792 11.7331 5.13282L11.7095 5.2427L11.4144 7.04582C11.3203 7.67504 11.7095 8.01594 12.3939 8.01594H14.6265C15.4049 8.02534 17.026 8.04318 17.8365 6.13111V6.13111Z" fill="#587C8B"/>
<path d="M10.651 5.10943L10.4125 6.56696L2.85495 12.707C2.56811 12.9173 2.35372 13.1938 2.23584 13.5052C2.19032 13.6215 2.15774 13.7413 2.13854 13.863V14.342C2.42831 14.3627 2.76299 14.342 3.12761 14.2706L27.0407 8.24518C27.1203 8.22512 27.204 8.22155 27.2854 8.23475C27.3668 8.24796 27.4436 8.27758 27.5097 8.32127C27.5758 8.36497 27.6295 8.42156 27.6665 8.48658C27.7035 8.5516 27.7228 8.62327 27.7229 8.69596V13.247C27.7235 13.3478 27.6869 13.446 27.6187 13.5271C27.5505 13.6081 27.4543 13.6677 27.3444 13.6968C22.7679 14.9083 4.57433 19.7232 4.12738 19.8293C3.62161 19.9514 2.50209 20.1355 2.13854 20.0942V23.0383C2.46466 23.0778 2.80362 23.0665 3.12761 22.9904L27.0397 16.9096C27.1193 16.8893 27.2032 16.8856 27.2847 16.8988C27.3662 16.9119 27.4431 16.9415 27.5094 16.9852C27.5757 17.0289 27.6294 17.0856 27.6665 17.1507C27.7036 17.2158 27.7229 17.2876 27.7229 17.3604V21.7292L28.5292 21.5263L28.5366 21.5244L28.5815 21.5113C28.8434 21.4356 29.0953 21.3358 29.3332 21.2136C29.8176 20.96 29.8615 20.7882 29.8615 20.7666V8.53537C29.8615 8.33064 29.7652 7.96813 29.5118 7.61784C29.2744 7.28915 28.9376 7.02337 28.496 6.89471L19.6671 5.07656C19.628 4.76719 19.5167 4.46824 19.3399 4.19848C19.1228 3.82189 18.6951 3.30631 18.2824 2.86304L29.0253 5.07468C29.0505 5.08013 29.0755 5.0864 29.1001 5.09346C30.132 5.3752 30.858 5.97625 31.3167 6.6111C31.7658 7.23092 32 7.93808 32 8.53537V20.7666C32 21.8747 30.9917 22.5321 30.425 22.828C30.0281 23.0332 29.6059 23.198 29.1664 23.3191L29.1386 23.3266L29.129 23.3285L29.1258 23.3294H29.1247C29.1247 23.3294 28.9697 23.3689 29.1237 23.3294L3.02496 29.909C3.00973 29.9127 2.9944 29.9162 2.97898 29.9193C2.21659 30.079 1.35049 30.0367 0.712133 29.4638C0.140074 28.9511 0 28.2195 0 27.5668V13.8227L0.00106932 13.7719V13.7579L0.00427715 13.7372C0.010655 13.6534 0.0224359 13.57 0.039563 13.4874C0.0695025 13.3352 0.121897 13.1296 0.213854 12.8939C0.449025 12.2838 0.864094 11.7394 1.41678 11.3161L11.4636 3.15511C11.4407 3.18393 11.4182 3.21304 11.3963 3.24244C10.9087 3.90547 10.76 4.59761 10.6873 4.93663L10.6831 4.95917C10.673 5.00935 10.6623 5.05944 10.651 5.10943Z" fill="#587C8B"/>
</svg>
